<svg width="100" height="100" viewBox="0 0 100 100" fill="none" xmlns="http://www.w3.org/2000/svg">
<path d="M45.8333 75H54.1667V66.6667H45.8333V75ZM50 8.33334C27 8.33334 8.33334 27 8.33334 50C8.33334 73 27 91.6667 50 91.6667C73 91.6667 91.6667 73 91.6667 50C91.6667 27 73 8.33334 50 8.33334ZM50 83.3334C31.625 83.3334 16.6667 68.375 16.6667 50C16.6667 31.625 31.625 16.6667 50 16.6667C68.375 16.6667 83.3334 31.625 83.3334 50C83.3334 68.375 68.375 83.3334 50 83.3334ZM50 25C40.7917 25 33.3333 32.4583 33.3333 41.6667H41.6667C41.6667 37.0833 45.4167 33.3333 50 33.3333C54.5833 33.3333 58.3333 37.0833 58.3333 41.6667C58.3333 50 45.8333 48.9583 45.8333 62.5H54.1667C54.1667 53.125 66.6667 52.0833 66.6667 41.6667C66.6667 32.4583 59.2083 25 50 25Z" fill="#1E335F"/>
</svg>
